<svg xmlns="http://www.w3.org/2000/svg" viewBox="0 0 958.38 745.79"><defs><style>.cls-1{fill:#5f0a3c;}</style></defs><g id="Capa_2" data-name="Capa 2"><g id="Capa_1-2" data-name="Capa 1"><path class="cls-1" d="M888.54,0H783.36V26.29H888.54V0ZM678.18,0H573V26.29H678.18V0ZM467.83,0H362.65V26.29H467.83V0ZM257.47,0H152.29V26.29H257.47V0ZM35,9.3A70.05,70.05,0,0,0,0,69.84v59.49H26.29V69.84h0V69.7h0v-.14h0v-.14h0v-.21h0v-.06h0v-.06h0V69h0v-.06h0v-.06h0v-.06h0v-.13h0v-.13h0v-.13h0V68.3h0v-.06h0v-.13h0V68h0v-.13h0v-.13h0v-.13h0v-.13h0v-.13h0V67h0v-.06h0v-.06h0V66.7h0v-.13h0v-.13h0v-.13h0v-.13h0v-.26h0v-.13h0V62.09h0v0h0l0-.12v-.1h0v-.06l0-.11v0l0-.12h0l0-.12v0l0-.11v-.06h0V61.1h0l0-.12v0h0l0-.07v-.06h0l0-.08h0v0h0v-.12h0v-.13h0V60.3h0v0h0v-.07h0v0h0V60h0V60h0l0-.13h0l0-.08h0v0h0l0-.08h0v0h0l0-.13h0c.06-.26.13-.52.2-.78h0l0-.12h0l0-.13h0l0-.12h0l0-.13h0l0-.13h0A43.49,43.49,0,0,1,39.21,38.89h0l.09-.09h0l.09-.09h0l.09-.09h0l0,0h0l.06,0h0l0,0h0l0,0h0l0,0h0l.05,0h0l0,0h0l0,0h0l0,0h0l.05-.05h0l0,0h0l.05,0h0l0,0,0,0,0,0h0l0,0,0,0,0,0,0,0,0,0v0l0,0,0,0,0,0,0,0,0,0,0,0,0,0,0,0,0,0,0,0,0,0h0l0,0,0,0,0,0,0,0,0,0,0,0,0,0,0,0,0,0,0,0v0l0,0h0l0,0h0l0,0h0l0,0,0,0,0,0v0l0,0h0l0,0h0l0,0h0l0,0h0l0,0v0l0,0h0l0,0h0l0,0h0l0,0h0l0,0h0l0,0h0l0,0h0l0,0h0l0,0h0l.05,0h0l0,0h0l0,0h0l0,0h0l0,0h0l.05,0h0l0,0h0l0,0h0l.09-.07h0l.1-.08h0l.1-.08h0l.1-.08h0a43.61,43.61,0,0,1,5.53-3.79L35,9.3ZM26.29,234.51H0V339.69H26.29V234.51Zm0,210.35H0V550H26.29V444.86Zm0,210.36H0V676a69.92,69.92,0,0,0,69.84,69.84h16v-26.3h-16A43.54,43.54,0,0,1,26.29,676V655.22Zm269.94,64.27H191.06v26.3H296.23v-26.3Zm210.36,0H401.41v26.3H506.59v-26.3Zm210.35,0H611.77v26.3H716.94v-26.3Zm205.44-16.14-.47.58h0l-.28.33h0l0,.05h0l-.05,0h0l-.19.22h0l0,0h0l0,.05h0l0,0v0l0,0h0L921,705h0l-.05,0v0l0,0h0l0,0v0l0,0v0l0,0h0l-.1.11h0l0,0h0l0,0,0,0,0,0,0,0,0,0,0,0,0,0h0l0,.05h0l-.05.06h0l0,0,0,0,0,0,0,0,0,0,0,0,0,0,0,0,0,0,0,0,0,0,0,0,0,0,0,0,0,0,0,0,0,0,0,0,0,0,0,0,0,0,0,0,0,0,0,0,0,0,0,0,0,0,0,0,0,0,0,0,0,0,0,0,0,0,0,0,0,0,0,0,0,0,0,0,0,0,0,0h0l-.11.12h0l0,0,0,0,0,0v0l0,0v0l0,0h0l0,0h0l-.13.12h0l0,0h0l0,0,0,0,0,0,0,0,0,0h0l0,0h0l-.18.17h0l0,0h0l0,0h0l0,0h0l0,0h0l-.23.21h0l0,0h0l0,0h0l0,0h0l-.28.26h0l0,0h0l0,0h0l-.3.25h0l0,0h0l0,0h0a43.31,43.31,0,0,1-13,7.75h0l-.06,0h0l-.44.16h0l-.06,0h0l-.5.18h0l-.06,0h0l-.44.15h0l-.06,0h0l-.51.16h0l-.06,0h0l-.06,0h0l-.31.09h-.2l-.38.12h-.14l-.38.1h-.07l-.06,0h0l-.06,0h0l-.31.08h-.08l-.05,0h-.15l-.24.07H899l0,0h-.08l-.25.06h-.08l0,0h-.15l-.24.06H898l0,0h-.09l0,0h-.08l-.18,0h-.42l-.11,0h-.43l-.12,0h-.42l-.16,0h-.45l-.08,0H822.12v26.3h66.42a69.55,69.55,0,0,0,54.26-25.88l-20.42-16.56Zm36-208.11h-26.3V600.42h26.3V495.24Zm0-210.36h-26.3V390.06h26.3V284.88Zm0-210.35h-26.3V179.71h26.3V74.53Z"/></g></g></svg>